<?xml version="1.0" standalone="no"?><!DOCTYPE svg PUBLIC "-//W3C//DTD SVG 1.1//EN" "http://www.w3.org/Graphics/SVG/1.1/DTD/svg11.dtd"><svg t="1552994000046" class="icon" style="" viewBox="0 0 1119 1024" version="1.1" xmlns="http://www.w3.org/2000/svg" p-id="535" xmlns:xlink="http://www.w3.org/1999/xlink" width="218.5546875" height="200"><defs><style type="text/css"></style></defs><path d="M1019.417296 507.946688c0 68.831868-6.189916 137.230442-30.949581 197.025032-25.688152 61.899162-73.041011 112.161281-119.836778 158.895148a496.926471 496.926471 0 0 1-164.342274 106.466559c-59.79459 24.759665-122.684139 53.666573-191.516007 53.666573s-134.444979-22.1599-194.301469-46.981464c-61.899162-25.688152-114.142054-67.098691-160.93782-113.832558a500.392824 500.392824 0 0 1-111.418491-162.052006C21.41711 641.277483 0 576.778556 0 507.946688a515.620018 515.620018 0 0 1 38.872674-196.158444c25.750051-61.899162 70.007952-114.018256 116.741819-160.93782s100.338541-86.968322 162.361501-112.656475A507.077933 507.077933 0 0 1 512.52506 0.002166c68.831868 0 132.526105 18.569749 192.320695 43.63891 61.899162 25.688152 124.664912 53.91417 171.398779 100.648037s72.174423 110.490004 97.862575 172.451064c24.821564 59.856489 45.310186 122.746038 45.310187 191.206511z" fill="#FFD635" p-id="536"></path><path d="M621.900879 957.891695c-64.870322 0-126.831383-20.921917-183.221519-44.3198-58.494708-24.264471-107.704542-63.260943-151.776745-107.395045a471.91921 471.91921 0 0 1-104.795281-152.829031c-23.397883-56.390136-43.329413-117.237012-43.329413-182.169233a486.775008 486.775008 0 0 1 36.396707-185.016595c24.264471-58.494708 66.232103-107.518844 110.118609-151.591047S379.937055 52.430757 438.369864 28.166285A469.133747 469.133747 0 0 1 531.837598 0.559259C525.461984 0.002166 519.024472 0.002166 512.52506 0.002166a507.077933 507.077933 0 0 0-194.549066 38.191783c-61.899162 25.750051-115.627634 66.108305-162.361501 112.842172s-90.991768 99.038659-116.741819 160.937821A515.620018 515.620018 0 0 0 0 507.946688c0 68.831868 21.41711 133.330795 46.238674 193.187284a499.773832 499.773832 0 0 0 111.418491 162.052006c46.733867 46.733867 99.038659 88.144406 160.937821 113.832558 59.856489 24.759665 125.5315 46.981464 194.301469 46.981464s131.721416-28.845009 191.516006-53.666573a517.848388 517.848388 0 0 0 134.568778-79.540423c-11.760841 5.818521-23.769278 11.389446-36.087211 16.527076-56.761531 23.335984-115.813332 50.571615-180.993149 50.571615z" fill="#F7B523" p-id="537"></path><path d="M431.003864 132.156877s3.652051-2.847361 10.27526-7.304101a240.168748 240.168748 0 0 1 28.659312-16.650875 235.712008 235.712008 0 0 1 44.3198-16.836572A217.513655 217.513655 0 0 1 569.472288 83.689833h14.05111c4.39484 0 9.408673 0.309496 13.927312 0.618992s9.099177 0.990387 13.555916 1.609378 8.789681 1.547479 13.060723 2.475967a168.613317 168.613317 0 0 1 24.078774 7.489798 140.139702 140.139702 0 0 1 20.488623 9.903866 123.798324 123.798324 0 0 1 27.483228 21.293312 74.278994 74.278994 0 0 1 6.62321 7.737395 27.607026 27.607026 0 0 1 2.16647 3.033059s-5.19953 0.928487-13.617815 1.547479c-4.147244 0.309496-9.099177 0.433294-14.670101 0.680891s-11.637042 0-18.136455 0-13.432118-0.618992-20.67432-1.114185-14.732001-1.361782-22.469396-2.352168l-11.698941-1.609379-12.008438-1.918874c-4.085345-0.680891-7.737395-1.423681-12.379832-2.042672l-6.189916-1.237983a55.214052 55.214052 0 0 0-5.818521-0.74279 438.988855 438.988855 0 0 0-91.548861 0l-32.125665 2.723563-9.222975 0.680891z" fill="#FFEF57" p-id="538"></path><path d="M224.755856 308.817085l1.423681-2.475967q1.48558-2.661664 4.271042-7.056504c3.775849-5.818521 9.284874-14.05111 16.588976-23.274085 3.590151-4.704336 7.799294-9.532471 12.379832-14.670101s9.284874-10.33716 14.546303-15.53669S284.736144 235.218981 290.430867 230.14325c2.97116-2.537866 5.88042-5.13763 8.913479-7.675496l9.408673-7.304101c6.189916-5.075731 12.875026-9.346773 19.374438-13.803513s13.30832-8.10879 19.683933-12.379833 13.122622-6.437513 19.250639-9.470571a186.81167 186.81167 0 0 1 17.826959-7.923093c5.632824-2.166471 10.708555-4.580538 15.412891-6.189916l12.379833-3.899647 10.646655-3.342555a21.726606 21.726606 0 1 1 13.060724 41.410539l-1.856975 0.495193h-1.609378l-9.470572 2.104572-10.894253 2.352168c-4.271042 0.866588-8.85158 2.537866-13.98921 3.961546a167.437233 167.437233 0 0 0-16.27948 5.447127c-5.694723 2.352168-11.946538 4.209143-17.888858 7.242202s-12.379832 5.447126-18.569748 9.037277-12.379832 6.685109-18.569749 10.770454l-9.161076 5.818522-8.727781 6.189916c-6.189916 4.085345-11.265647 8.603983-16.588976 12.813126s-10.151463 8.85158-14.793899 13.060723-8.789681 8.418286-12.379833 12.379833a252.796177 252.796177 0 0 0-17.269866 19.93153c-1.980773 2.475966-3.466353 4.45674-4.332941 5.694723l-1.48558 2.104571a10.151463 10.151463 0 0 1-17.207967-10.832353zM896.052266 355.612851s-0.618992-0.928487-1.423681-1.980773-2.290269-2.97116-4.209143-5.261429-4.332941-5.075731-7.242202-8.046891-6.189916-6.189916-10.27526-9.841967-8.356387-6.870807-12.875026-10.584756-9.841967-7.242202-15.53669-10.275261l-8.480185-5.013832-9.037277-4.332942a174.122342 174.122342 0 0 0-18.569749-7.799294c-6.189916-2.352168-13.060723-3.837748-19.436337-5.756622s-13.060723-2.414067-19.250639-3.652051-12.379832-1.114185-18.569749-1.671277-11.389446 0-16.465177 0a97.800676 97.800676 0 0 0-13.865412 0.557092l-10.708555 1.052286-9.346773 0.928488h-1.795076a21.726606 21.726606 0 1 1-4.332941-43.329414h25.378656a130.421534 130.421534 0 0 1 16.21758 0.990387c6.189916 0.680891 12.379832 0.74279 19.064942 2.104571s13.803513 2.475966 21.045715 4.023446 14.608202 4.085345 22.036102 6.189916 14.7939 5.509025 21.912303 8.913479a229.026899 229.026899 0 0 1 20.798118 11.07995l9.780068 6.189917 9.099177 6.561311c6.189916 4.147244 11.203748 9.161076 16.403278 13.370219s9.59437 8.913479 13.370219 13.370219 7.489799 8.418286 10.399059 12.379832 5.385227 7.118404 7.366 9.965765 3.404454 5.13763 4.45674 6.932706a18.941144 18.941144 0 0 1 1.42368 2.475967l0.371395 0.74279a10.151463 10.151463 0 0 1-17.70316 9.903865z" fill="#F7B523" p-id="539"></path><path d="M897.97114 417.759609l-2.104571-2.414067c-1.361782-1.609378-3.156857-2.97116-5.632824-5.447126s-5.756622-4.828135-9.408673-7.551698a130.916727 130.916727 0 0 0-13.24642-8.046891 154.747904 154.747904 0 0 0-36.582405-13.184521 206.186108 206.186108 0 0 0-44.814993-5.075732H774.482312c-3.837748 0-7.675496 0.557092-11.451345 0.928488a204.824326 204.824326 0 0 0-22.036101 3.404454 164.032779 164.032779 0 0 0-37.139497 11.946538 97.119785 97.119785 0 0 0-22.716993 14.422505c-2.352168 2.22837-4.271042 4.023446-5.509025 5.385227l-1.918874 2.042672-0.74279 0.866588a8.913479 8.913479 0 0 1-15.103395-8.294487l0.928487-3.528253a55.275951 55.275951 0 0 1 3.775849-9.718168 88.268205 88.268205 0 0 1 23.397883-28.287917 134.754475 134.754475 0 0 1 44.443598-23.893076 170.408392 170.408392 0 0 1 27.29753-6.189917c4.704336-0.74279 9.532471-1.237983 14.360606-1.609378 2.352168 0 4.951933 0 7.489799-0.371395s3.961546 0 7.056504 0a173.317653 173.317653 0 0 1 28.906909 2.723563 160.937821 160.937821 0 0 1 27.173732 7.366001 138.963618 138.963618 0 0 1 23.893076 10.956151 122.931735 122.931735 0 0 1 19.436337 14.174908 99.038659 99.038659 0 0 1 13.927311 14.979597 82.69728 82.69728 0 0 1 8.356387 13.370219 67.655784 67.655784 0 0 1 3.961546 9.408673l0.928488 3.094958a9.037278 9.037278 0 0 1-15.350992 8.542084zM460.158369 372.573221a65.860708 65.860708 0 0 1-3.899647 24.759665 64.127532 64.127532 0 0 1-15.165295 20.055328 61.156372 61.156372 0 0 1-20.736219 13.432119 63.384742 63.384742 0 0 1-24.140673 6.808907 66.665397 66.665397 0 0 1-44.876893-20.302925 62.518153 62.518153 0 0 1-13.98921-20.488622 63.322843 63.322843 0 0 1-6.189916-24.38827 64.746523 64.746523 0 0 1 4.951933-24.759665 75.578877 75.578877 0 0 1 35.282522-34.415934 64.622725 64.622725 0 0 1 24.759664-4.766235 63.756137 63.756137 0 0 1 24.264472 5.447126 64.808422 64.808422 0 0 1 21.602807 12.751227 63.199044 63.199044 0 0 1 12.379833 21.788505 61.899162 61.899162 0 0 1 5.756622 24.078774zM532.704186 566.688993h2.042673l1.176084-0.371395a29.959194 29.959194 0 0 0 2.90926-1.299883 40.358253 40.358253 0 0 0 5.756622-4.147244c3.837748-3.280656 7.737395-7.180303 11.946539-11.079949A91.177465 91.177465 0 0 1 588.042037 529.24a74.278994 74.278994 0 0 1 19.807732-4.085345 77.621549 77.621549 0 0 1 20.055328 1.176084 54.161767 54.161767 0 0 1 5.385227 1.299883 55.709246 55.709246 0 0 1 5.447127 1.856974 68.089078 68.089078 0 0 1 26.616639 18.569749 83.068675 83.068675 0 0 1 12.379832 17.517463 81.026003 81.026003 0 0 1 7.304102 19.93153A83.501969 83.501969 0 0 1 687.080696 606.613952a92.044054 92.044054 0 0 1-3.033059 21.293312 87.092121 87.092121 0 0 1-8.356387 19.993429 91.610759 91.610759 0 0 1-12.875026 17.084169 92.848743 92.848743 0 0 1-16.155681 13.184521 99.65765 99.65765 0 0 1-17.888858 9.161076l-7.861193-35.406321a83.068675 83.068675 0 0 1 27.421329 3.466354 94.52002 94.52002 0 0 1 24.759664 11.637042 96.562692 96.562692 0 0 1 34.787329 40.853447 81.830692 81.830692 0 0 1 6.747009 27.545127 69.698456 69.698456 0 0 1-4.147244 28.906908 76.197868 76.197868 0 0 1-6.189916 13.060723l-0.433294 0.80469-0.371395 0.557092-0.74279 1.114185-1.547479 2.352168c-1.361782 1.856975-2.723563 3.961546-4.147244 5.632824a91.239364 91.239364 0 0 1-19.374438 18.569748 82.69728 82.69728 0 0 1-24.32637 11.760841 83.935263 83.935263 0 0 1-26.121447 3.156857 101.267029 101.267029 0 0 1-47.414757-13.98921 111.418491 111.418491 0 0 1-10.027665-6.189916l-4.271042-3.156858c-1.48558-1.052286-2.290269-1.609378-3.65205-2.414067a48.467044 48.467044 0 0 0-16.588976-6.189916 44.814993 44.814993 0 0 0-18.569748 0.928487 61.094473 61.094473 0 0 0-17.826959 7.737395h-0.433294a4.39484 4.39484 0 0 1-5.570925-6.685109 61.899162 61.899162 0 0 1 19.25064-13.927311 60.599279 60.599279 0 0 1 23.893076-5.818522 61.527767 61.527767 0 0 1 24.759665 4.518639l6.189916 2.723563 4.951933 2.475967c2.909261 1.48558 6.189916 2.723563 8.789681 3.961546a85.049448 85.049448 0 0 0 18.136454 4.951933 72.36012 72.36012 0 0 0 17.826959 0.74279 53.542775 53.542775 0 0 0 29.897295-12.379832 59.79459 59.79459 0 0 0 10.708555-12.379833l1.980773-3.218756 1.299883-2.22837 0.68089-1.237983v-0.557093c-0.495193 0.804689 0 0 0 0.371395a37.139497 37.139497 0 0 0 2.537866-6.685109 39.12027 39.12027 0 0 0-3.033059-27.730825 53.976069 53.976069 0 0 0-8.542084-13.184521 64.746523 64.746523 0 0 0-11.946538-10.956152 62.641952 62.641952 0 0 0-14.113009-7.675496 58.556607 58.556607 0 0 0-15.041497-3.590151 18.198354 18.198354 0 0 1-10.770454-33.549346l2.909261-1.856975a113.584962 113.584962 0 0 0 11.141849-7.613597 72.793414 72.793414 0 0 0 9.284874-8.603983 71.555431 71.555431 0 0 0 7.118404-9.780068 62.889548 62.889548 0 0 0 4.704336-10.894252 55.709246 55.709246 0 0 0 1.980773-23.954976 52.923783 52.923783 0 0 0-8.603983-22.716992 41.781934 41.781934 0 0 0-8.046891-8.727782 32.001867 32.001867 0 0 0-4.828135-3.342555 24.759665 24.759665 0 0 0-2.290269-1.299882 9.222975 9.222975 0 0 0-2.661664-1.176084 57.62812 57.62812 0 0 0-13.122622-3.033059 50.447817 50.447817 0 0 0-13.30832 0 61.156372 61.156372 0 0 0-13.617815 3.899647 127.388475 127.388475 0 0 0-13.927312 6.994605c-4.766235 2.723563-9.59437 5.818521-15.289093 8.480186a40.543951 40.543951 0 0 1-9.222975 3.280655 30.516287 30.516287 0 0 1-5.323328 0.618992 23.954976 23.954976 0 0 1-2.97116 0L532.332791 575.664371a4.45674 4.45674 0 0 1-3.404453-5.261429 4.39484 4.39484 0 0 1 4.023445-3.466353z" fill="#943436" p-id="540"></path><path d="M884.600921 690.487316c25.81195 25.750051 47.909951 49.519329 47.909951 49.51933s79.911818-35.715816 94.086726-46.671968c10.522858-8.10879 46.795766-25.935749 71.060238-41.472439 10.894252-16.836572 20.179127-33.735043 21.169513-51.933396s-7.180303-33.796942-19.064941-51.871498c-9.965765-15.103395-21.664707-29.340203-39.058372-34.601631-16.341379-4.951933-34.911127-1.48558-53.047581 2.847361a113.213567 113.213567 0 0 0-47.724254 22.036102 112.96597 112.96597 0 0 0-38.563178-35.653918 96.872188 96.872188 0 0 0-49.519329-14.360605c-18.136454-0.495193-37.139497-0.433294-51.190607 10.708555a73.288608 73.288608 0 0 0-23.212186 33.301749 279.289018 279.289018 0 0 0 20.179127 78.426238c14.608202 30.392488 42.029531 54.966456 66.974893 79.72612z" fill="#F74F5C" p-id="541"></path><path d="M1026.597598 693.272779c-14.174908 10.956152-94.086726 46.671968-94.086726 46.671968s-22.098001-23.583581-47.909951-49.51933c-24.759665-24.759665-52.366691-49.519329-66.665397-80.097515a279.289018 279.289018 0 0 1-20.179127-78.426238c-1.856975 5.013832-3.404454 10.027664-4.766235 14.979597a105.228575 105.228575 0 0 0 1.609378 54.842657 224.570159 224.570159 0 0 0 21.355211 51.6858c8.975378 16.465177 15.041496 35.530119 26.183345 50.571616 11.946538 16.155681 26.183345 29.835396 37.634691 42.710421 16.898471 18.941144 31.692371 35.777716 39.367866 43.329413 9.59437-4.518639 28.164119-17.207967 50.26212-29.897295 14.917698-8.542084 30.330589-20.117228 46.795766-31.692371a422.461779 422.461779 0 0 0 45.743481-33.239849 226.984226 226.984226 0 0 0 35.715816-43.329414c-24.264471 15.350992-60.53738 33.177951-71.060238 41.41054z" fill="#D82A3F" p-id="542"></path></svg>