<?xml version="1.0" encoding="utf-8"?>
<svg height="64" version="1.1" width="64" xmlns="http://www.w3.org/2000/svg" viewBox="0 0 64 64">
	<g>
		<path fill="none" stroke="#fff" stroke-width="5" stroke-linecap="round" stroke-linejoin="round" d="M19.380224,45.186142C19.380224,45.186142,24.240994999999998,39.901132,32.150375,39.901132C40.059754,39.901132,44.92052699999999,45.186142,44.92052699999999,45.186142">
		</path>
		<path fill="none" stroke="#fff" stroke-width="5" stroke-linecap="round" stroke-linejoin="round" d="m 59.013798,30.326033 a 28.596857,28.596857 0 1 1 -57.1937144,0 28.596857,28.596857 0 1 1 57.1937144,0 z" transform="translate(1.5830593,1.5830584)">
		</path>
		<path fill="#fff" d="m 25.2456,20.818995 a 4.2934899,4.2512827 0 1 1 -8.58698,0 4.2934899,4.2512827 0 1 1 8.58698,0 z" transform="translate(2,0)">
		</path>
		<path fill="#fff" d="m 25.2456,20.818995 a 4.2934899,4.2512827 0 1 1 -8.58698,0 4.2934899,4.2512827 0 1 1 8.58698,0 z" transform="translate(20.09578,-5.2209472e-7)">
		</path>
	</g>
</svg>
